<svg width="17" height="17" viewBox="0 0 17 17" fill="none" xmlns="http://www.w3.org/2000/svg">
<path fill-rule="evenodd" clip-rule="evenodd" d="M15.8305 6.13473H11.4819V6.12643C10.9823 6.12643 10.5543 5.8075 10.3884 5.35781C10.3755 5.32461 10.3639 5.28932 10.355 5.25473L9.07927 1.27329L9.04719 1.17367C8.93252 0.881721 8.65199 0.674866 8.32299 0.674866C7.97352 0.674866 7.67797 0.908702 7.57968 1.23109H7.57832L6.28691 5.23744C6.28622 5.23882 6.28622 5.24159 6.28486 5.24366C6.27394 5.28656 6.26165 5.32737 6.24459 5.36888C6.07599 5.81234 5.65212 6.12643 5.15521 6.12643V6.13473H0.802507C0.425049 6.18869 0.134277 6.51938 0.134277 6.91787C0.134277 7.17592 0.254409 7.40353 0.441431 7.54743C0.453035 7.55712 0.464638 7.56542 0.476242 7.57441L3.85698 10.0754H3.85561C4.16618 10.2884 4.37163 10.6496 4.37163 11.0591C4.37163 11.1518 4.36071 11.2418 4.34023 11.3282C4.32522 11.3974 4.30338 11.4632 4.27676 11.5261L2.99558 15.5255C2.99354 15.5304 2.99149 15.5345 2.99012 15.5394L2.97988 15.5698C2.95941 15.6411 2.9478 15.7186 2.9478 15.7974C2.9478 16.234 3.29659 16.5882 3.72661 16.5882C3.8679 16.5882 4.00032 16.5501 4.11499 16.4837L4.24877 16.3848C4.24945 16.3834 4.25014 16.3834 4.25082 16.3813L7.60494 13.9094C7.62883 13.8908 7.65408 13.8721 7.67865 13.8548C7.86295 13.7296 8.08478 13.6583 8.32299 13.6583C8.55302 13.6583 8.76802 13.7254 8.94822 13.8423C8.98986 13.8679 9.02876 13.897 9.0663 13.9295C9.06699 13.9302 9.06903 13.9302 9.06903 13.9316L12.404 16.3952L12.4982 16.465C12.4996 16.4657 12.501 16.4678 12.503 16.4685C12.6211 16.5404 12.7597 16.5826 12.9071 16.5826C13.3364 16.5826 13.6852 16.2284 13.6852 15.7912C13.6852 15.7096 13.6743 15.63 13.6504 15.556C13.647 15.5442 13.6429 15.5318 13.6388 15.5193L12.3508 11.504C12.3303 11.4521 12.3126 11.3988 12.3003 11.3442C12.2778 11.2528 12.2648 11.156 12.2648 11.057C12.2648 10.6821 12.4368 10.3472 12.7057 10.13C12.7337 10.1065 12.7638 10.085 12.7945 10.0643L16.137 7.59655H16.1377L16.2394 7.52114C16.4073 7.37586 16.5124 7.15932 16.5124 6.91926C16.5124 6.51593 16.2155 6.18316 15.8305 6.13473Z" fill="#FFB19D"/>
</svg>
